<?xml version="1.0" encoding="UTF-8" standalone="no"?>
<svg
   version="1.1"
   id="Layer_1"
   x="0px"
   y="0px"
   viewBox="0 0 500.00002 499.99998"
   enable-background="new 0 0 2674.243 1085.728"
   sodipodi:docname="chess_svg2.svg"
   inkscape:version="1.1.1 (3bf5ae0d25, 2021-09-20)"
   width="500"
   height="500"
   inkscape:export-filename="C:\Users\zheng\Documents\victor-zheng-codes.github.io\images\chess_design_larger2.png"
   inkscape:export-xdpi="96"
   inkscape:export-ydpi="96"
   xmlns:inkscape="http://www.inkscape.org/namespaces/inkscape"
   xmlns:sodipodi="http://sodipodi.sourceforge.net/DTD/sodipodi-0.dtd"
   xmlns="http://www.w3.org/2000/svg"
   xmlns:svg="http://www.w3.org/2000/svg">
  <defs
     id="defs2653" />
  <sodipodi:namedview
     id="namedview2651"
     pagecolor="#ffffff"
     bordercolor="#666666"
     borderopacity="1.0"
     inkscape:pageshadow="2"
     inkscape:pageopacity="0.0"
     inkscape:pagecheckerboard="0"
     showgrid="false"
     inkscape:zoom="0.93633977"
     inkscape:cx="247.23931"
     inkscape:cy="331.61039"
     inkscape:window-width="1920"
     inkscape:window-height="1001"
     inkscape:window-x="361"
     inkscape:window-y="951"
     inkscape:window-maximized="1"
     inkscape:current-layer="Layer_1"
     width="200px" />
  <g
     id="g4107"
     transform="matrix(0.63177568,0,0,0.63177568,-759.01462,-174.24211)">
    <g
       id="g1048">
      <polygon
         fill="#b67f7f"
         points="1535.436,925.903 1668.236,928.147 1659.466,971.479 "
         id="polygon656" />
      <polygon
         fill="#bb8383"
         points="1561.669,970.623 1535.436,925.903 1659.466,971.479 "
         id="polygon658" />
      <polygon
         fill="#aa7777"
         points="1543.052,1004.564 1659.466,971.479 1696.42,1013.53 "
         id="polygon660" />
      <polygon
         fill="#906464"
         points="1543.052,1004.564 1561.669,970.623 1659.466,971.479 "
         id="polygon662" />
      <polygon
         fill="#704e4e"
         points="1548.054,1029.623 1543.052,1004.564 1696.42,1013.53 "
         id="polygon664" />
      <polygon
         fill="#916565"
         points="1535.436,925.903 1621.62,890.935 1668.236,928.147 "
         id="polygon666" />
      <polygon
         fill="#c08787"
         points="1523.26,891.743 1555.516,815.816 1621.62,890.935 "
         id="polygon668" />
      <polygon
         fill="#6b4b4b"
         points="1523.26,891.743 1621.62,890.935 1535.436,925.903 "
         id="polygon670" />
      <polygon
         fill="#c88c8c"
         points="1621.62,890.935 1555.516,815.816 1650.983,697.662 "
         id="polygon672" />
      <polygon
         fill="#c88c8c"
         points="1555.516,815.816 1582.315,682.28 1650.983,697.662 "
         id="polygon674" />
      <polygon
         fill="#694949"
         points="1758.702,919.918 1668.236,928.147 1621.62,890.935 "
         id="polygon676" />
      <polygon
         fill="#805959"
         points="1758.702,919.918 1621.62,890.935 1702.371,890.103 "
         id="polygon678" />
      <polygon
         fill="#b98181"
         points="1621.62,890.935 1650.983,697.662 1702.371,890.103 "
         id="polygon680" />
      <polygon
         fill="#b17c7c"
         points="1555.516,815.816 1523.26,891.743 1484.307,842.834 "
         id="polygon682" />
      <polygon
         fill="#a97676"
         points="1499.538,717.5 1555.516,815.816 1484.307,842.834 "
         id="polygon684" />
      <polygon
         fill="#4b3434"
         points="1775.713,1010.642 1741.279,1029.475 1696.42,1013.53 "
         id="polygon686" />
      <polygon
         fill="#352525"
         points="1696.42,1013.53 1741.279,1029.475 1548.054,1029.623 "
         id="polygon688" />
      <polygon
         fill="#8b6161"
         points="1535.436,925.903 1561.669,970.623 1463.762,971.525 "
         id="polygon690" />
      <polygon
         fill="#6f4e4e"
         points="1463.762,971.525 1561.669,970.623 1543.052,1004.564 "
         id="polygon692" />
      <polygon
         fill="#926666"
         points="1749.95,970.762 1668.236,928.147 1758.702,919.918 "
         id="polygon694" />
      <polygon
         fill="#7d5858"
         points="1749.95,970.762 1775.713,1010.642 1696.42,1013.53 "
         id="polygon696" />
      <polygon
         fill="#7a5656"
         points="1659.466,971.479 1749.95,970.762 1696.42,1013.53 "
         id="polygon698" />
      <polygon
         fill="#916666"
         points="1659.466,971.479 1668.236,928.147 1749.95,970.762 "
         id="polygon700" />
      <polygon
         fill="#ad7979"
         points="1702.371,890.103 1650.983,697.662 1715.942,763.864 "
         id="polygon702" />
      <polygon
         fill="#8e6363"
         points="1463.762,971.525 1436.787,924.765 1535.436,925.903 "
         id="polygon704" />
      <polygon
         fill="#6b4a4a"
         points="1535.436,925.903 1436.787,924.765 1523.26,891.743 "
         id="polygon706" />
      <polygon
         fill="#604343"
         points="1548.054,1029.623 1417.034,1008.927 1543.052,1004.564 "
         id="polygon708" />
      <polygon
         fill="#805a5a"
         points="1463.762,971.525 1543.052,1004.564 1417.034,1008.927 "
         id="polygon710" />
      <polygon
         fill="#936666"
         points="1499.538,717.5 1474.828,549.382 1555.516,815.816 "
         id="polygon712" />
      <polygon
         fill="#c48989"
         points="1555.516,815.816 1474.828,549.382 1582.315,682.28 "
         id="polygon714" />
      <polygon
         fill="#bb8383"
         points="1582.315,682.28 1560.701,543.446 1650.983,697.662 "
         id="polygon716" />
      <polygon
         fill="#bf8585"
         points="1582.315,682.28 1474.828,549.382 1560.701,543.446 "
         id="polygon718" />
      <polygon
         fill="#cb8e8e"
         points="1560.701,543.446 1474.828,549.382 1508.192,404.035 "
         id="polygon720" />
      <polygon
         fill="#c88c8c"
         points="1448.507,435.406 1508.192,404.035 1474.828,549.382 "
         id="polygon722" />
      <polygon
         fill="#c48989"
         points="1508.192,404.035 1448.507,435.406 1507.542,343.314 "
         id="polygon724" />
      <polygon
         fill="#cb8e8e"
         points="1560.701,543.446 1508.192,404.035 1744.553,439.031 "
         id="polygon726" />
      <polygon
         fill="#473232"
         points="1472.545,891.41 1523.26,891.743 1436.787,924.765 "
         id="polygon728" />
      <polygon
         fill="#6d4c4c"
         points="1472.545,891.41 1484.307,842.834 1523.26,891.743 "
         id="polygon730" />
      <polygon
         fill="#ca8d8d"
         points="1757.122,494.412 1680.791,512.195 1744.553,439.031 "
         id="polygon732" />
      <polygon
         fill="#b07b7b"
         points="1560.701,543.446 1744.553,439.031 1680.791,512.195 "
         id="polygon734" />
      <polygon
         fill="#c08787"
         points="1508.192,404.035 1507.542,343.314 1596.433,392.028 "
         id="polygon736" />
      <polygon
         fill="#966969"
         points="1744.553,439.031 1508.192,404.035 1596.433,392.028 "
         id="polygon738" />
      <polygon
         fill="#916565"
         points="1715.942,763.864 1650.983,697.662 1719.426,660.879 "
         id="polygon740" />
      <polygon
         fill="#926666"
         points="1560.701,543.446 1680.791,512.195 1631.413,547.96 "
         id="polygon742" />
      <polygon
         fill="#906565"
         points="1719.426,660.879 1650.983,697.662 1631.413,547.96 "
         id="polygon744" />
      <polygon
         fill="#9e6e6e"
         points="1650.983,697.662 1560.701,543.446 1631.413,547.96 "
         id="polygon746" />
      <polygon
         fill="#674848"
         points="1448.423,831.64 1499.538,717.5 1484.307,842.834 "
         id="polygon748" />
      <polygon
         fill="#5a3f3f"
         points="1472.545,891.41 1448.423,831.64 1484.307,842.834 "
         id="polygon750" />
      <polygon
         fill="#8d6262"
         points="1766.622,420.155 1744.553,439.031 1596.433,392.028 "
         id="polygon752" />
      <polygon
         fill="#926666"
         points="1757.122,494.412 1744.553,439.031 1766.622,420.155 "
         id="polygon754" />
      <polygon
         fill="#5b3f3f"
         points="1448.423,831.64 1471.023,712.14 1499.538,717.5 "
         id="polygon756" />
      <polygon
         fill="#785454"
         points="1763.764,790.547 1715.942,763.864 1719.426,660.879 "
         id="polygon758" />
      <polygon
         fill="#875e5e"
         points="1715.942,763.864 1763.764,790.547 1702.371,890.103 "
         id="polygon760" />
      <polygon
         fill="#704e4e"
         points="1507.542,343.314 1448.507,435.406 1469.557,364.69 "
         id="polygon762" />
      <polygon
         fill="#624545"
         points="1417.695,445.217 1469.557,364.69 1448.507,435.406 "
         id="polygon764" />
      <polygon
         fill="#916565"
         points="1499.538,717.5 1417.695,445.217 1474.828,549.382 "
         id="polygon766" />
      <polygon
         fill="#7f5858"
         points="1417.695,445.217 1448.507,435.406 1474.828,549.382 "
         id="polygon768" />
      <polygon
         fill="#563c3c"
         points="1471.023,712.14 1417.695,445.217 1499.538,717.5 "
         id="polygon770" />
      <polygon
         fill="#624545"
         points="1750.181,889.983 1702.371,890.103 1763.764,790.547 "
         id="polygon772" />
      <polygon
         fill="#362626"
         points="1750.181,889.983 1758.702,919.918 1702.371,890.103 "
         id="polygon774" />
      <polygon
         fill="#535353"
         points="1507.542,343.314 1469.557,364.69 1555.523,355.005 "
         id="polygon776" />
      <polygon
         fill="#412d2d"
         points="1555.523,355.005 1596.433,392.028 1507.542,343.314 "
         id="polygon778" />
      <polygon
         fill="#c38888"
         points="1559.465,312.411 1555.523,355.005 1469.557,364.69 "
         id="polygon780" />
      <polygon
         fill="#a87575"
         points="1469.557,364.69 1417.695,445.217 1432.744,338.25 "
         id="polygon782" />
      <polygon
         fill="#966969"
         points="1469.557,364.69 1432.744,338.25 1559.465,312.411 "
         id="polygon784" />
      <polygon
         fill="#885f5f"
         points="1441.175,709.172 1471.023,712.14 1448.423,831.64 "
         id="polygon786" />
      <polygon
         fill="#865e5e"
         points="1417.695,445.217 1471.023,712.14 1441.175,709.172 "
         id="polygon788" />
      <polygon
         fill="#291d1d"
         points="1750.181,889.983 1794.831,928.06 1758.702,919.918 "
         id="polygon790" />
      <polygon
         fill="#432f2f"
         points="1758.702,919.918 1794.831,928.06 1749.95,970.762 "
         id="polygon792" />
      <polygon
         fill="#926666"
         points="1417.695,445.217 1387.124,452.024 1432.744,338.25 "
         id="polygon794" />
      <polygon
         fill="#9d6e6e"
         points="1441.175,709.172 1387.124,452.024 1417.695,445.217 "
         id="polygon796" />
      <polygon
         fill="#463131"
         points="1596.433,392.028 1733.838,400.617 1766.622,420.155 "
         id="polygon798" />
      <polygon
         fill="#755252"
         points="1419.803,819.434 1441.175,709.172 1448.423,831.64 "
         id="polygon800" />
      <polygon
         fill="#2d1f1f"
         points="1436.787,924.765 1463.762,971.525 1417.258,924.088 "
         id="polygon802" />
      <polygon
         fill="#241919"
         points="1472.545,891.41 1436.787,924.765 1417.258,924.088 "
         id="polygon804" />
      <polygon
         fill="#322323"
         points="1596.433,392.028 1622.752,384.4 1733.838,400.617 "
         id="polygon806" />
      <polygon
         fill="#4b3535"
         points="1596.433,392.028 1555.523,355.005 1622.752,384.4 "
         id="polygon808" />
      <polygon
         fill="#573d3d"
         points="1736.61,528.54 1680.791,512.195 1757.122,494.412 "
         id="polygon810" />
      <polygon
         fill="#322323"
         points="1749.95,970.762 1807.094,1010.015 1775.713,1010.642 "
         id="polygon812" />
      <polygon
         fill="#211717"
         points="1807.094,1010.015 1741.279,1029.475 1775.713,1010.642 "
         id="polygon814" />
      <polygon
         fill="#8b8b8b"
         points="1432.872,396.157 1432.744,338.25 1387.124,452.024 "
         id="polygon816" />
      <polygon
         fill="#231818"
         points="1794.831,928.06 1767.629,970.389 1749.95,970.762 "
         id="polygon818" />
      <polygon
         fill="#201616"
         points="1767.629,970.389 1807.094,1010.015 1749.95,970.762 "
         id="polygon820" />
      <polygon
         points="1472.545,891.41 1417.258,924.088 1468.309,890.461 "
         id="polygon822" />
      <polygon
         fill="#241919"
         points="1442.631,969.057 1463.762,971.525 1417.034,1008.927 "
         id="polygon824" />
      <polygon
         fill="#261a1a"
         points="1417.258,924.088 1463.762,971.525 1442.631,969.057 "
         id="polygon826" />
      <polygon
         fill="#2f2121"
         points="1763.764,790.547 1719.426,660.879 1757.916,736.015 "
         id="polygon828" />
      <polygon
         fill="#999999"
         points="1441.175,709.172 1425.066,483.155 1387.124,452.024 "
         id="polygon830" />
      <polygon
         fill="#acacac"
         points="1432.872,396.157 1387.124,452.024 1425.066,483.155 "
         id="polygon832" />
      <polygon
         fill="#7c7c7c"
         points="1523.397,348.058 1555.523,355.005 1559.465,312.411 "
         id="polygon834" />
      <polygon
         fill="#232323"
         points="1555.523,355.005 1523.397,348.058 1622.752,384.4 "
         id="polygon836" />
      <polygon
         fill="#858585"
         points="1523.397,348.058 1559.465,312.411 1432.744,338.25 "
         id="polygon838" />
      <polygon
         fill="#b4b4b4"
         points="1432.744,338.25 1432.872,396.157 1523.397,348.058 "
         id="polygon840" />
      <polygon
         points="1680.791,512.195 1736.61,528.54 1684.727,517.13 "
         id="polygon842" />
      <polygon
         fill="#868686"
         points="1441.175,709.172 1419.803,819.434 1470.317,715.7 "
         id="polygon844" />
      <polygon
         fill="#808080"
         points="1470.317,715.7 1425.066,483.155 1441.175,709.172 "
         id="polygon846" />
      <polygon
         fill="#1a1212"
         points="1680.791,512.195 1684.727,517.13 1629.101,551.35 "
         id="polygon848" />
      <polygon
         points="1631.413,547.96 1680.791,512.195 1629.101,551.35 "
         id="polygon850" />
      <polygon
         fill="#251a1a"
         points="1417.034,1008.927 1548.054,1029.623 1425.037,1027.272 "
         id="polygon852" />
      <polygon
         points="1712.786,646.346 1719.426,660.879 1631.413,547.96 "
         id="polygon854" />
      <polygon
         fill="#ee9999"
         points="1719.426,660.879 1712.786,646.346 1757.916,736.015 "
         id="polygon856" />
      <polygon
         fill="#161616"
         points="1629.101,551.35 1712.786,646.346 1631.413,547.96 "
         id="polygon858" />
      <polygon
         fill="#271b1b"
         points="1757.122,494.412 1766.622,420.155 1774.251,465.204 "
         id="polygon860" />
      <polygon
         fill="#dddddd"
         points="1736.61,528.54 1757.122,494.412 1774.251,465.204 "
         id="polygon862" />
      <polygon
         fill="#848484"
         points="1450.919,839.778 1470.317,715.7 1419.803,819.434 "
         id="polygon864" />
      <polygon
         fill="#191111"
         points="1419.803,819.434 1448.423,831.64 1450.919,839.778 "
         id="polygon866" />
      <polygon
         fill="#ee9999"
         points="1472.545,891.41 1450.919,839.778 1448.423,831.64 "
         id="polygon868" />
      <polygon
         points="1468.309,890.461 1450.919,839.778 1472.545,891.41 "
         id="polygon870" />
      <polygon
         fill="#ffaaaa"
         points="1417.034,1008.927 1421.983,998.428 1442.631,969.057 "
         id="polygon872" />
      <polygon
         fill="#151515"
         points="1425.037,1027.272 1421.983,998.428 1417.034,1008.927 "
         id="polygon874" />
      <polygon
         fill="#555555"
         points="1733.838,400.617 1622.752,384.4 1751.034,427.067 "
         id="polygon876" />
      <polygon
         fill="#2a2a2a"
         points="1733.838,400.617 1751.034,427.067 1766.622,420.155 "
         id="polygon878" />
      <polygon
         fill="#2d2d2d"
         points="1774.251,465.204 1766.622,420.155 1751.034,427.067 "
         id="polygon880" />
      <polygon
         fill="#202020"
         points="1750.181,889.983 1763.764,790.547 1750.446,814.148 "
         id="polygon882" />
      <polygon
         fill="#242424"
         points="1763.764,790.547 1757.916,736.015 1750.446,814.148 "
         id="polygon884" />
      <polygon
         fill="#595959"
         points="1736.61,528.54 1729.442,503.818 1684.727,517.13 "
         id="polygon886" />
      <polygon
         fill="#515151"
         points="1736.61,528.54 1774.251,465.204 1729.442,503.818 "
         id="polygon888" />
      <polygon
         fill="#aeaeae"
         points="1751.034,427.067 1729.442,503.818 1774.251,465.204 "
         id="polygon890" />
      <polygon
         fill="#767676"
         points="1729.442,503.818 1664.33,491.371 1684.727,517.13 "
         id="polygon892" />
      <polygon
         fill="#949494"
         points="1629.101,551.35 1684.727,517.13 1664.33,491.371 "
         id="polygon894" />
      <polygon
         fill="#cbcbcb"
         points="1729.442,503.818 1597.889,412.481 1664.33,491.371 "
         id="polygon896" />
      <polygon
         fill="#cbcbcb"
         points="1729.442,503.818 1751.034,427.067 1597.889,412.481 "
         id="polygon898" />
      <polygon
         fill="#646464"
         points="1622.752,384.4 1597.889,412.481 1751.034,427.067 "
         id="polygon900" />
      <polygon
         fill="#dddddd"
         points="1548.054,1029.623 1750.385,1030.604 1425.037,1027.272 "
         id="polygon902" />
      <polygon
         points="1741.279,1029.475 1807.094,1010.015 1750.385,1030.604 "
         id="polygon904" />
      <polygon
         fill="#ee9999"
         points="1741.279,1029.475 1750.385,1030.604 1548.054,1029.623 "
         id="polygon906" />
      <polygon
         fill="#616161"
         points="1425.066,483.155 1451.722,430.648 1432.872,396.157 "
         id="polygon908" />
      <polygon
         fill="#717171"
         points="1622.752,384.4 1506.492,354.368 1597.889,412.481 "
         id="polygon910" />
      <polygon
         fill="#808080"
         points="1451.722,430.648 1506.492,354.368 1432.872,396.157 "
         id="polygon912" />
      <polygon
         fill="#c9c9c9"
         points="1664.33,491.371 1597.889,412.481 1506.492,354.368 "
         id="polygon914" />
      <polygon
         fill="#454545"
         points="1622.752,384.4 1523.397,348.058 1506.492,354.368 "
         id="polygon916" />
      <polygon
         fill="#171010"
         points="1432.872,396.157 1506.492,354.368 1523.397,348.058 "
         id="polygon918" />
      <polygon
         fill="#cacaca"
         points="1567.264,548.936 1664.33,491.371 1506.492,354.368 "
         id="polygon920" />
      <polygon
         fill="#8f8f8f"
         points="1567.264,548.936 1629.101,551.35 1664.33,491.371 "
         id="polygon922" />
      <polygon
         fill="#cbcbcb"
         points="1473.362,549.808 1567.264,548.936 1506.492,354.368 "
         id="polygon924" />
      <polygon
         fill="#c9c9c9"
         points="1473.362,549.808 1506.492,354.368 1451.722,430.648 "
         id="polygon926" />
      <polygon
         fill="#828282"
         points="1473.362,549.808 1451.722,430.648 1425.066,483.155 "
         id="polygon928" />
      <polygon
         fill="#494949"
         points="1711.647,890.689 1750.181,889.983 1750.446,814.148 "
         id="polygon930" />
      <polygon
         fill="#3b3b3b"
         points="1417.258,924.088 1453.93,925.476 1468.309,890.461 "
         id="polygon932" />
      <polygon
         fill="#4d4d4d"
         points="1417.258,924.088 1442.631,969.057 1453.93,925.476 "
         id="polygon934" />
      <polygon
         fill="#656565"
         points="1757.916,736.015 1712.786,646.346 1691.001,684.224 "
         id="polygon936" />
      <polygon
         fill="#767676"
         points="1750.446,814.148 1757.916,736.015 1691.001,684.224 "
         id="polygon938" />
      <polygon
         fill="#737373"
         points="1712.786,646.346 1629.101,551.35 1691.001,684.224 "
         id="polygon940" />
      <polygon
         fill="#8d8d8d"
         points="1567.264,548.936 1691.001,684.224 1629.101,551.35 "
         id="polygon942" />
      <polygon
         fill="#575757"
         points="1425.066,483.155 1470.317,715.7 1503.191,717.532 "
         id="polygon944" />
      <polygon
         fill="#585858"
         points="1503.191,717.532 1470.317,715.7 1450.919,839.778 "
         id="polygon946" />
      <polygon
         fill="#8d8d8d"
         points="1503.191,717.532 1473.362,549.808 1425.066,483.155 "
         id="polygon948" />
      <polygon
         fill="#686868"
         points="1526.671,891.076 1450.919,839.778 1468.309,890.461 "
         id="polygon950" />
      <polygon
         fill="#464646"
         points="1526.671,891.076 1468.309,890.461 1453.93,925.476 "
         id="polygon952" />
      <polygon
         fill="#313131"
         points="1750.181,889.983 1751.71,924.437 1794.831,928.06 "
         id="polygon954" />
      <polygon
         fill="#595959"
         points="1751.71,924.437 1719.752,971.197 1767.629,970.389 "
         id="polygon956" />
      <polygon
         fill="#333333"
         points="1711.647,890.689 1751.71,924.437 1750.181,889.983 "
         id="polygon958" />
      <polygon
         fill="#4c4c4c"
         points="1794.831,928.06 1751.71,924.437 1767.629,970.389 "
         id="polygon960" />
      <polygon
         fill="#505050"
         points="1767.629,970.389 1719.752,971.197 1755.597,1010.144 "
         id="polygon962" />
      <polygon
         fill="#3b3b3b"
         points="1750.385,1030.604 1807.094,1010.015 1755.597,1010.144 "
         id="polygon964" />
      <polygon
         fill="#4c4c4c"
         points="1767.629,970.389 1755.597,1010.144 1807.094,1010.015 "
         id="polygon966" />
      <polygon
         fill="#757575"
         points="1503.191,717.532 1450.919,839.778 1500.916,837.611 "
         id="polygon968" />
      <polygon
         fill="#6b6b6b"
         points="1450.919,839.778 1526.671,891.076 1500.916,837.611 "
         id="polygon970" />
      <polygon
         fill="#575757"
         points="1442.631,969.057 1421.983,998.428 1473.637,1005.195 "
         id="polygon972" />
      <polygon
         fill="#676767"
         points="1421.983,998.428 1425.037,1027.272 1473.637,1005.195 "
         id="polygon974" />
      <polygon
         fill="#646464"
         points="1453.93,925.476 1442.631,969.057 1525.515,972.081 "
         id="polygon976" />
      <polygon
         fill="#565656"
         points="1442.631,969.057 1473.637,1005.195 1525.515,972.081 "
         id="polygon978" />
      <polygon
         fill="#aeaeae"
         points="1567.264,548.936 1590.264,680.242 1691.001,684.224 "
         id="polygon980" />
      <polygon
         fill="#bababa"
         points="1590.264,680.242 1567.264,548.936 1473.362,549.808 "
         id="polygon982" />
      <polygon
         fill="#515151"
         points="1425.037,1027.272 1540.859,1026.985 1473.637,1005.195 "
         id="polygon984" />
      <polygon
         fill="#ffffff"
         points="1425.037,1027.272 1750.385,1030.604 1540.859,1026.985 "
         id="polygon986" />
      <polygon
         fill="#b0b0b0"
         points="1711.647,890.689 1633.578,803.629 1633.74,893.89 "
         id="polygon988" />
      <polygon
         fill="#bebebe"
         points="1633.578,803.629 1691.001,684.224 1590.264,680.242 "
         id="polygon990" />
      <polygon
         fill="#a6a6a6"
         points="1633.578,803.629 1711.647,890.689 1750.446,814.148 "
         id="polygon992" />
      <polygon
         fill="#a6a6a6"
         points="1633.578,803.629 1750.446,814.148 1691.001,684.224 "
         id="polygon994" />
      <polygon
         fill="#adadad"
         points="1526.671,891.076 1633.74,893.89 1549.546,829.455 "
         id="polygon996" />
      <polygon
         fill="#cbcbcb"
         points="1549.546,829.455 1633.578,803.629 1590.264,680.242 "
         id="polygon998" />
      <polygon
         fill="#c0c0c0"
         points="1549.546,829.455 1590.264,680.242 1473.362,549.808 "
         id="polygon1000" />
      <polygon
         fill="#a7a7a7"
         points="1500.916,837.611 1526.671,891.076 1549.546,829.455 "
         id="polygon1002" />
      <polygon
         fill="#acacac"
         points="1503.191,717.532 1500.916,837.611 1549.546,829.455 "
         id="polygon1004" />
      <polygon
         fill="#c6c6c6"
         points="1633.74,893.89 1633.578,803.629 1549.546,829.455 "
         id="polygon1006" />
      <polygon
         fill="#969696"
         points="1549.546,829.455 1473.362,549.808 1503.191,717.532 "
         id="polygon1008" />
      <polygon
         fill="#757575"
         points="1526.671,891.076 1453.93,925.476 1543.752,924.951 "
         id="polygon1010" />
      <polygon
         fill="#9d9d9d"
         points="1453.93,925.476 1525.515,972.081 1543.752,924.951 "
         id="polygon1012" />
      <polygon
         fill="#adadad"
         points="1525.515,972.081 1639.521,971.512 1543.752,924.951 "
         id="polygon1014" />
      <polygon
         fill="#717171"
         points="1711.647,890.689 1643.519,922.505 1751.71,924.437 "
         id="polygon1016" />
      <polygon
         fill="#a8a8a8"
         points="1643.519,922.505 1639.521,971.512 1719.752,971.197 "
         id="polygon1018" />
      <polygon
         fill="#6f6f6f"
         points="1526.671,891.076 1543.752,924.951 1643.519,922.505 "
         id="polygon1020" />
      <polygon
         fill="#6b6b6b"
         points="1633.74,893.89 1643.519,922.505 1711.647,890.689 "
         id="polygon1022" />
      <polygon
         fill="#777777"
         points="1526.671,891.076 1643.519,922.505 1633.74,893.89 "
         id="polygon1024" />
      <polygon
         fill="#bababa"
         points="1639.521,971.512 1643.519,922.505 1543.752,924.951 "
         id="polygon1026" />
      <polygon
         fill="#a8a8a8"
         points="1719.752,971.197 1751.71,924.437 1643.519,922.505 "
         id="polygon1028" />
      <polygon
         fill="#898989"
         points="1639.521,971.512 1664.124,1012.886 1719.752,971.197 "
         id="polygon1030" />
      <polygon
         fill="#484848"
         points="1755.597,1010.144 1664.124,1012.886 1750.385,1030.604 "
         id="polygon1032" />
      <polygon
         fill="#8e8e8e"
         points="1719.752,971.197 1664.124,1012.886 1755.597,1010.144 "
         id="polygon1034" />
      <polygon
         fill="#313131"
         points="1750.385,1030.604 1664.124,1012.886 1540.859,1026.985 "
         id="polygon1036" />
      <polygon
         fill="#a2a2a2"
         points="1639.521,971.512 1556.02,1005.183 1664.124,1012.886 "
         id="polygon1038" />
      <polygon
         fill="#838383"
         points="1525.515,972.081 1556.02,1005.183 1639.521,971.512 "
         id="polygon1040" />
      <polygon
         fill="#929292"
         points="1473.637,1005.195 1556.02,1005.183 1525.515,972.081 "
         id="polygon1042" />
      <polygon
         fill="#777777"
         points="1664.124,1012.886 1556.02,1005.183 1540.859,1026.985 "
         id="polygon1044" />
      <polygon
         fill="#818181"
         points="1540.859,1026.985 1556.02,1005.183 1473.637,1005.195 "
         id="polygon1046" />
    </g>
  </g>
</svg>
